<svg width="8" height="14" viewBox="0 0 8 14" fill="none" xmlns="http://www.w3.org/2000/svg">
<path d="M5.49565 7.02709C5.40013 6.91571 5.35237 6.85382 5.30461 6.80432C3.85983 5.30679 2.42699 3.80926 0.982218 2.32411C0.743412 2.07658 0.492665 1.84143 0.2658 1.58153C-0.164051 1.09886 -0.0446471 0.381034 0.504606 0.0963805C0.838935 -0.0768878 1.23296 -0.0150057 1.51953 0.269648C1.78222 0.52955 2.03296 0.789452 2.28371 1.04935C3.88371 2.70777 5.49565 4.36619 7.09565 6.02461C7.39416 6.33402 7.69267 6.6558 8.00311 7.00234C7.96729 7.05184 7.90759 7.1261 7.84789 7.18798C5.77028 9.34145 3.68072 11.4949 1.60311 13.6608C1.2449 14.0321 0.838933 14.0568 0.552366 13.933C-0.0207681 13.6855 -0.187932 12.9306 0.241919 12.4479C0.516545 12.1385 0.803113 11.8662 1.07774 11.5692C2.47475 10.1088 3.87177 8.67314 5.25684 7.22511C5.32849 7.16323 5.40013 7.11373 5.49565 7.02709Z" fill="#E6514A"/>
</svg>
